# xmcd CD database file
#
# Track frame offsets:
#	150
#	21422
#	36212
#	51930
#	65912
#	84235
#	100167
#	117745
#	133450
#	163390
#	178747
#	197387
#	217350
#	235890
#
# Disc length: 3446 seconds
#
# Revision: 0
# Processed by: cddbd v1.4PL0 Copyright (c) Steve Scherf et al.
# Submitted via: CDex 1.40Beta9
#
DISCID=dd0d740e
DTITLE=Dallas Wayne and the Dimlights - Buckle up, baby
DYEAR=1993
DGENRE=Country
TTITLE0=Big Rig
TTITLE1=I Never Did Like Planes
TTITLE2=Death In The Family
TTITLE3=Crank The Hank
TTITLE4=Wild Bill Jones
TTITLE5=She
TTITLE6=Hold Me In A Hurry
TTITLE7=Buckle Up Baby
TTITLE8=Welcome Home
TTITLE9=Begore We Set The World on Fire
TTITLE10=Passed Up By Time
TTITLE11=Bad Dog
TTITLE12='Till I Met You
TTITLE13=Dim Lights, Thick Smoke And Loud, Loud Music
EXTD=YEAR: 1993 ID3G: 2
EXTT0=
EXTT1=
EXTT2=
EXTT3=
EXTT4=
EXTT5=
EXTT6=
EXTT7=
EXTT8=
EXTT9=
EXTT10=
EXTT11=
EXTT12=
EXTT13=
PLAYORDER=
